<?xml version="1.0" encoding="UTF-8"?>
<svg width="136px" height="16px" viewBox="0 0 136 16" version="1.1" xmlns="http://www.w3.org/2000/svg" xmlns:xlink="http://www.w3.org/1999/xlink">
    <title>RalucaComanici</title>
    <g id="Page-1" stroke="none" stroke-width="1" fill="none" fill-rule="evenodd">
        <g id="Artboard" transform="translate(-8.000000, -18.000000)" fill="#000000" fill-rule="nonzero">
            <path d="M9.93909091,33 L9.93909091,27.02 L11.4090909,27.02 C11.6757576,27.02 11.8757576,27.055 12.0090909,27.125 C12.1424242,27.195 12.2657576,27.31 12.3790909,27.47 L12.3790909,27.47 L16.0990909,32.59 C16.2657576,32.8633333 16.5257576,33 16.8790909,33 L16.8790909,33 L18.5990909,33 L14.4190909,27.31 C14.2324242,27.0433333 14.0190909,26.84 13.7790909,26.7 C14.3324242,26.5733333 14.8274242,26.3866667 15.2640909,26.14 C15.7007576,25.8933333 16.0707576,25.595 16.3740909,25.245 C16.6774242,24.895 16.9090909,24.5 17.0690909,24.06 C17.2290909,23.62 17.3090909,23.1466667 17.3090909,22.64 C17.3090909,22.0333333 17.2057576,21.485 16.9990909,20.995 C16.7924242,20.505 16.4740909,20.0866667 16.0440909,19.74 C15.6140909,19.3933333 15.0690909,19.1283333 14.4090909,18.945 C13.7490909,18.7616667 12.9657576,18.67 12.0590909,18.67 L12.0590909,18.67 L8.00909091,18.67 L8.00909091,33 L9.93909091,33 Z M11.9690909,25.61 L9.93909091,25.61 L9.93909091,20.2 L12.0590909,20.2 C13.1724242,20.2 14.0107576,20.4166667 14.5740909,20.85 C15.1374242,21.2833333 15.4190909,21.9266667 15.4190909,22.78 C15.4190909,23.2 15.3457576,23.5833333 15.1990909,23.93 C15.0524242,24.2766667 14.8340909,24.575 14.5440909,24.825 C14.2540909,25.075 13.8940909,25.2683333 13.4640909,25.405 C13.0340909,25.5416667 12.5357576,25.61 11.9690909,25.61 L11.9690909,25.61 Z M22.2445455,33.16 C22.6312121,33.16 22.9828788,33.1266667 23.2995455,33.06 C23.6162121,32.9933333 23.9145455,32.895 24.1945455,32.765 C24.4745455,32.635 24.7412121,32.475 24.9945455,32.285 C25.2478788,32.095 25.5078788,31.88 25.7745455,31.64 L25.7745455,31.64 L25.9745455,32.58 C26.0078788,32.7533333 26.0778788,32.8666667 26.1845455,32.92 C26.2912121,32.9733333 26.4312121,33 26.6045455,33 L26.6045455,33 L27.3945455,33 L27.3945455,26.52 C27.3945455,25.9533333 27.3178788,25.4333333 27.1645455,24.96 C27.0112121,24.4866667 26.7845455,24.0833333 26.4845455,23.75 C26.1845455,23.4166667 25.8145455,23.1566667 25.3745455,22.97 C24.9345455,22.7833333 24.4312121,22.69 23.8645455,22.69 C23.0778788,22.69 22.3612121,22.8233333 21.7145455,23.09 C21.0678788,23.3566667 20.4645455,23.76 19.9045455,24.3 L19.9045455,24.3 L20.2245455,24.87 C20.2778788,24.9633333 20.3495455,25.0416667 20.4395455,25.105 C20.5295455,25.1683333 20.6345455,25.2 20.7545455,25.2 C20.9078788,25.2 21.0628788,25.145 21.2195455,25.035 C21.3762121,24.925 21.5628788,24.8016667 21.7795455,24.665 C21.9962121,24.5283333 22.2528788,24.405 22.5495455,24.295 C22.8462121,24.185 23.2112121,24.13 23.6445455,24.13 C24.3045455,24.13 24.8028788,24.3316667 25.1395455,24.735 C25.4762121,25.1383333 25.6445455,25.7333333 25.6445455,26.52 L25.6445455,26.52 L25.6445455,27.31 C24.4978788,27.3366667 23.5278788,27.4416667 22.7345455,27.625 C21.9412121,27.8083333 21.2995455,28.0433333 20.8095455,28.33 C20.3195455,28.6166667 19.9645455,28.945 19.7445455,29.315 C19.5245455,29.685 19.4145455,30.07 19.4145455,30.47 C19.4145455,30.93 19.4895455,31.3283333 19.6395455,31.665 C19.7895455,32.0016667 19.9912121,32.28 20.2445455,32.5 C20.4978788,32.72 20.7962121,32.885 21.1395455,32.995 C21.4828788,33.105 21.8512121,33.16 22.2445455,33.16 Z M22.7745455,31.91 C22.5412121,31.91 22.3245455,31.8816667 22.1245455,31.825 C21.9245455,31.7683333 21.7512121,31.6783333 21.6045455,31.555 C21.4578788,31.4316667 21.3412121,31.2733333 21.2545455,31.08 C21.1678788,30.8866667 21.1245455,30.6566667 21.1245455,30.39 C21.1245455,30.11 21.2062121,29.8566667 21.3695455,29.63 C21.5328788,29.4033333 21.7945455,29.2066667 22.1545455,29.04 C22.5145455,28.8733333 22.9812121,28.7383333 23.5545455,28.635 C24.1278788,28.5316667 24.8245455,28.4666667 25.6445455,28.44 L25.6445455,28.44 L25.6445455,30.55 C25.4445455,30.7633333 25.2395455,30.9533333 25.0295455,31.12 C24.8195455,31.2866667 24.5995455,31.4283333 24.3695455,31.545 C24.1395455,31.6616667 23.8945455,31.7516667 23.6345455,31.815 C23.3745455,31.8783333 23.0878788,31.91 22.7745455,31.91 Z M31.62,33 L31.62,18.27 L29.84,18.27 L29.84,33 L31.62,33 Z M37.4554545,33.16 C38.1621212,33.16 38.7887879,33.0116667 39.3354545,32.715 C39.8821212,32.4183333 40.3754545,32.0266667 40.8154545,31.54 L40.8154545,31.54 L40.9554545,32.63 C41.0221212,32.8766667 41.1821212,33 41.4354545,33 L41.4354545,33 L42.4954545,33 L42.4954545,22.87 L40.7154545,22.87 L40.7154545,30.34 C40.3287879,30.78 39.9054545,31.1233333 39.4454545,31.37 C38.9854545,31.6166667 38.4954545,31.74 37.9754545,31.74 C37.2621212,31.74 36.7287879,31.53 36.3754545,31.11 C36.0221212,30.69 35.8454545,30.0966667 35.8454545,29.33 L35.8454545,29.33 L35.8454545,22.87 L34.0654545,22.87 L34.0654545,29.33 C34.0654545,29.9033333 34.1371212,30.4266667 34.2804545,30.9 C34.4237879,31.3733333 34.6387879,31.7766667 34.9254545,32.11 C35.2121212,32.4433333 35.5671212,32.7016667 35.9904545,32.885 C36.4137879,33.0683333 36.9021212,33.16 37.4554545,33.16 Z M48.7209091,33.14 C49.4542424,33.14 50.1509091,33.015 50.8109091,32.765 C51.4709091,32.515 52.0209091,32.12 52.4609091,31.58 L52.4609091,31.58 L51.9609091,30.93 C51.8875758,30.8166667 51.7742424,30.76 51.6209091,30.76 C51.5009091,30.76 51.3809091,30.8116667 51.2609091,30.915 C51.1409091,31.0183333 50.9875758,31.1333333 50.8009091,31.26 C50.6142424,31.3866667 50.3809091,31.5016667 50.1009091,31.605 C49.8209091,31.7083333 49.4642424,31.76 49.0309091,31.76 C48.5775758,31.76 48.1692424,31.675 47.8059091,31.505 C47.4425758,31.335 47.1342424,31.0883333 46.8809091,30.765 C46.6275758,30.4416667 46.4309091,30.0416667 46.2909091,29.565 C46.1509091,29.0883333 46.0809091,28.5433333 46.0809091,27.93 C46.0809091,27.3433333 46.1459091,26.8133333 46.2759091,26.34 C46.4059091,25.8666667 46.5992424,25.4633333 46.8559091,25.13 C47.1125758,24.7966667 47.4309091,24.5416667 47.8109091,24.365 C48.1909091,24.1883333 48.6275758,24.1 49.1209091,24.1 C49.4942424,24.1 49.8092424,24.1416667 50.0659091,24.225 C50.3225758,24.3083333 50.5409091,24.4 50.7209091,24.5 C50.9009091,24.6 51.0492424,24.6916667 51.1659091,24.775 C51.2825758,24.8583333 51.3909091,24.9 51.4909091,24.9 C51.5909091,24.9 51.6675758,24.88 51.7209091,24.84 C51.7742424,24.8 51.8275758,24.7433333 51.8809091,24.67 L51.8809091,24.67 L52.3509091,24.03 C51.9309091,23.61 51.4475758,23.285 50.9009091,23.055 C50.3542424,22.825 49.7275758,22.71 49.0209091,22.71 C48.2542424,22.71 47.5742424,22.84 46.9809091,23.1 C46.3875758,23.36 45.8892424,23.7216667 45.4859091,24.185 C45.0825758,24.6483333 44.7759091,25.2 44.5659091,25.84 C44.3559091,26.48 44.2509091,27.1766667 44.2509091,27.93 C44.2509091,28.7566667 44.3659091,29.4933333 44.5959091,30.14 C44.8259091,30.7866667 45.1409091,31.3316667 45.5409091,31.775 C45.9409091,32.2183333 46.4125758,32.5566667 46.9559091,32.79 C47.4992424,33.0233333 48.0875758,33.14 48.7209091,33.14 Z M56.1463636,33.16 C56.5330303,33.16 56.884697,33.1266667 57.2013636,33.06 C57.5180303,32.9933333 57.8163636,32.895 58.0963636,32.765 C58.3763636,32.635 58.6430303,32.475 58.8963636,32.285 C59.149697,32.095 59.409697,31.88 59.6763636,31.64 L59.6763636,31.64 L59.8763636,32.58 C59.909697,32.7533333 59.979697,32.8666667 60.0863636,32.92 C60.1930303,32.9733333 60.3330303,33 60.5063636,33 L60.5063636,33 L61.2963636,33 L61.2963636,26.52 C61.2963636,25.9533333 61.219697,25.4333333 61.0663636,24.96 C60.9130303,24.4866667 60.6863636,24.0833333 60.3863636,23.75 C60.0863636,23.4166667 59.7163636,23.1566667 59.2763636,22.97 C58.8363636,22.7833333 58.3330303,22.69 57.7663636,22.69 C56.979697,22.69 56.2630303,22.8233333 55.6163636,23.09 C54.969697,23.3566667 54.3663636,23.76 53.8063636,24.3 L53.8063636,24.3 L54.1263636,24.87 C54.179697,24.9633333 54.2513636,25.0416667 54.3413636,25.105 C54.4313636,25.1683333 54.5363636,25.2 54.6563636,25.2 C54.809697,25.2 54.964697,25.145 55.1213636,25.035 C55.2780303,24.925 55.464697,24.8016667 55.6813636,24.665 C55.8980303,24.5283333 56.154697,24.405 56.4513636,24.295 C56.7480303,24.185 57.1130303,24.13 57.5463636,24.13 C58.2063636,24.13 58.704697,24.3316667 59.0413636,24.735 C59.3780303,25.1383333 59.5463636,25.7333333 59.5463636,26.52 L59.5463636,26.52 L59.5463636,27.31 C58.399697,27.3366667 57.429697,27.4416667 56.6363636,27.625 C55.8430303,27.8083333 55.2013636,28.0433333 54.7113636,28.33 C54.2213636,28.6166667 53.8663636,28.945 53.6463636,29.315 C53.4263636,29.685 53.3163636,30.07 53.3163636,30.47 C53.3163636,30.93 53.3913636,31.3283333 53.5413636,31.665 C53.6913636,32.0016667 53.8930303,32.28 54.1463636,32.5 C54.399697,32.72 54.6980303,32.885 55.0413636,32.995 C55.384697,33.105 55.7530303,33.16 56.1463636,33.16 Z M56.6763636,31.91 C56.4430303,31.91 56.2263636,31.8816667 56.0263636,31.825 C55.8263636,31.7683333 55.6530303,31.6783333 55.5063636,31.555 C55.359697,31.4316667 55.2430303,31.2733333 55.1563636,31.08 C55.069697,30.8866667 55.0263636,30.6566667 55.0263636,30.39 C55.0263636,30.11 55.1080303,29.8566667 55.2713636,29.63 C55.434697,29.4033333 55.6963636,29.2066667 56.0563636,29.04 C56.4163636,28.8733333 56.8830303,28.7383333 57.4563636,28.635 C58.029697,28.5316667 58.7263636,28.4666667 59.5463636,28.44 L59.5463636,28.44 L59.5463636,30.55 C59.3463636,30.7633333 59.1413636,30.9533333 58.9313636,31.12 C58.7213636,31.2866667 58.5013636,31.4283333 58.2713636,31.545 C58.0413636,31.6616667 57.7963636,31.7516667 57.5363636,31.815 C57.2763636,31.8783333 56.989697,31.91 56.6763636,31.91 Z M73.2172727,33.16 C74.3972727,33.16 75.4056061,32.97 76.2422727,32.59 C77.0789394,32.21 77.7906061,31.68 78.3772727,31 L78.3772727,31 L77.6172727,30.17 C77.5306061,30.0833333 77.4339394,30.04 77.3272727,30.04 C77.2206061,30.04 77.1106061,30.09 76.9972727,30.19 C76.7439394,30.4166667 76.4922727,30.6116667 76.2422727,30.775 C75.9922727,30.9383333 75.7222727,31.0733333 75.4322727,31.18 C75.1422727,31.2866667 74.8272727,31.365 74.4872727,31.415 C74.1472727,31.465 73.7639394,31.49 73.3372727,31.49 C72.6372727,31.49 71.9839394,31.3633333 71.3772727,31.11 C70.7706061,30.8566667 70.2456061,30.4883333 69.8022727,30.005 C69.3589394,29.5216667 69.0089394,28.93 68.7522727,28.23 C68.4956061,27.53 68.3672727,26.7333333 68.3672727,25.84 C68.3672727,24.9733333 68.4956061,24.19 68.7522727,23.49 C69.0089394,22.79 69.3672727,22.1966667 69.8272727,21.71 C70.2872727,21.2233333 70.8356061,20.8483333 71.4722727,20.585 C72.1089394,20.3216667 72.8106061,20.19 73.5772727,20.19 C74.0039394,20.19 74.3806061,20.2216667 74.7072727,20.285 C75.0339394,20.3483333 75.3206061,20.4266667 75.5672727,20.52 C75.8139394,20.6133333 76.0272727,20.7133333 76.2072727,20.82 C76.3872727,20.9266667 76.5439394,21.0266667 76.6772727,21.12 C76.8106061,21.2133333 76.9256061,21.2916667 77.0222727,21.355 C77.1189394,21.4183333 77.2106061,21.45 77.2972727,21.45 C77.4106061,21.45 77.4972727,21.4283333 77.5572727,21.385 C77.6172727,21.3416667 77.6706061,21.2866667 77.7172727,21.22 L77.7172727,21.22 L78.3472727,20.33 C77.7539394,19.77 77.0756061,19.3266667 76.3122727,19 C75.5489394,18.6733333 74.6406061,18.51 73.5872727,18.51 C72.5206061,18.51 71.5456061,18.6883333 70.6622727,19.045 C69.7789394,19.4016667 69.0206061,19.9033333 68.3872727,20.55 C67.7539394,21.1966667 67.2622727,21.97 66.9122727,22.87 C66.5622727,23.77 66.3872727,24.76 66.3872727,25.84 C66.3872727,26.92 66.5506061,27.91 66.8772727,28.81 C67.2039394,29.71 67.6639394,30.4816667 68.2572727,31.125 C68.8506061,31.7683333 69.5672727,32.2683333 70.4072727,32.625 C71.2472727,32.9816667 72.1839394,33.16 73.2172727,33.16 Z M84.2927273,33.14 C85.0327273,33.14 85.7010606,33.0183333 86.2977273,32.775 C86.8943939,32.5316667 87.4010606,32.1833333 87.8177273,31.73 C88.2343939,31.2766667 88.5543939,30.73 88.7777273,30.09 C89.0010606,29.45 89.1127273,28.73 89.1127273,27.93 C89.1127273,27.1366667 89.0010606,26.4183333 88.7777273,25.775 C88.5543939,25.1316667 88.2343939,24.5833333 87.8177273,24.13 C87.4010606,23.6766667 86.8943939,23.3266667 86.2977273,23.08 C85.7010606,22.8333333 85.0327273,22.71 84.2927273,22.71 C83.5527273,22.71 82.8843939,22.8333333 82.2877273,23.08 C81.6910606,23.3266667 81.1827273,23.6766667 80.7627273,24.13 C80.3427273,24.5833333 80.0193939,25.1316667 79.7927273,25.775 C79.5660606,26.4183333 79.4527273,27.1366667 79.4527273,27.93 C79.4527273,28.73 79.5660606,29.45 79.7927273,30.09 C80.0193939,30.73 80.3427273,31.2766667 80.7627273,31.73 C81.1827273,32.1833333 81.6910606,32.5316667 82.2877273,32.775 C82.8843939,33.0183333 83.5527273,33.14 84.2927273,33.14 Z M84.2927273,31.75 C83.7860606,31.75 83.3460606,31.6633333 82.9727273,31.49 C82.5993939,31.3166667 82.2877273,31.0683333 82.0377273,30.745 C81.7877273,30.4216667 81.6010606,30.0233333 81.4777273,29.55 C81.3543939,29.0766667 81.2927273,28.54 81.2927273,27.94 C81.2927273,27.34 81.3543939,26.8016667 81.4777273,26.325 C81.6010606,25.8483333 81.7877273,25.4466667 82.0377273,25.12 C82.2877273,24.7933333 82.5993939,24.5433333 82.9727273,24.37 C83.3460606,24.1966667 83.7860606,24.11 84.2927273,24.11 C85.2927273,24.11 86.0393939,24.4466667 86.5327273,25.12 C87.0260606,25.7933333 87.2727273,26.7333333 87.2727273,27.94 C87.2727273,29.14 87.0260606,30.075 86.5327273,30.745 C86.0393939,31.415 85.2927273,31.75 84.2927273,31.75 Z M92.6381818,33 L92.6381818,25.45 C92.9515152,25.0433333 93.2965152,24.7216667 93.6731818,24.485 C94.0498485,24.2483333 94.4581818,24.13 94.8981818,24.13 C95.5248485,24.13 96.0015152,24.33 96.3281818,24.73 C96.6548485,25.13 96.8181818,25.7366667 96.8181818,26.55 L96.8181818,26.55 L96.8181818,33 L98.5981818,33 L98.5981818,26.55 C98.5981818,26.15 98.6565152,25.7983333 98.7731818,25.495 C98.8898485,25.1916667 99.0481818,24.94 99.2481818,24.74 C99.4481818,24.54 99.6798485,24.3883333 99.9431818,24.285 C100.206515,24.1816667 100.484848,24.13 100.778182,24.13 C101.438182,24.13 101.941515,24.335 102.288182,24.745 C102.634848,25.155 102.808182,25.7566667 102.808182,26.55 L102.808182,26.55 L102.808182,33 L104.588182,33 L104.588182,26.55 C104.588182,25.9366667 104.511515,25.3916667 104.358182,24.915 C104.204848,24.4383333 103.983182,24.0366667 103.693182,23.71 C103.403182,23.3833333 103.049848,23.135 102.633182,22.965 C102.216515,22.795 101.741515,22.71 101.208182,22.71 C100.874848,22.71 100.546515,22.75 100.223182,22.83 C99.8998485,22.91 99.5948485,23.0366667 99.3081818,23.21 C99.0215152,23.3833333 98.7631818,23.6033333 98.5331818,23.87 C98.3031818,24.1366667 98.1181818,24.4533333 97.9781818,24.82 C97.7915152,24.1733333 97.4865152,23.66 97.0631818,23.28 C96.6398485,22.9 96.0848485,22.71 95.3981818,22.71 C94.7848485,22.71 94.2465152,22.8566667 93.7831818,23.15 C93.3198485,23.4433333 92.9015152,23.82 92.5281818,24.28 L92.5281818,24.28 L92.3981818,23.24 C92.3315152,22.9933333 92.1715152,22.87 91.9181818,22.87 L91.9181818,22.87 L90.8581818,22.87 L90.8581818,33 L92.6381818,33 Z M109.113636,33.16 C109.500303,33.16 109.85197,33.1266667 110.168636,33.06 C110.485303,32.9933333 110.783636,32.895 111.063636,32.765 C111.343636,32.635 111.610303,32.475 111.863636,32.285 C112.11697,32.095 112.37697,31.88 112.643636,31.64 L112.643636,31.64 L112.843636,32.58 C112.87697,32.7533333 112.94697,32.8666667 113.053636,32.92 C113.160303,32.9733333 113.300303,33 113.473636,33 L113.473636,33 L114.263636,33 L114.263636,26.52 C114.263636,25.9533333 114.18697,25.4333333 114.033636,24.96 C113.880303,24.4866667 113.653636,24.0833333 113.353636,23.75 C113.053636,23.4166667 112.683636,23.1566667 112.243636,22.97 C111.803636,22.7833333 111.300303,22.69 110.733636,22.69 C109.94697,22.69 109.230303,22.8233333 108.583636,23.09 C107.93697,23.3566667 107.333636,23.76 106.773636,24.3 L106.773636,24.3 L107.093636,24.87 C107.14697,24.9633333 107.218636,25.0416667 107.308636,25.105 C107.398636,25.1683333 107.503636,25.2 107.623636,25.2 C107.77697,25.2 107.93197,25.145 108.088636,25.035 C108.245303,24.925 108.43197,24.8016667 108.648636,24.665 C108.865303,24.5283333 109.12197,24.405 109.418636,24.295 C109.715303,24.185 110.080303,24.13 110.513636,24.13 C111.173636,24.13 111.67197,24.3316667 112.008636,24.735 C112.345303,25.1383333 112.513636,25.7333333 112.513636,26.52 L112.513636,26.52 L112.513636,27.31 C111.36697,27.3366667 110.39697,27.4416667 109.603636,27.625 C108.810303,27.8083333 108.168636,28.0433333 107.678636,28.33 C107.188636,28.6166667 106.833636,28.945 106.613636,29.315 C106.393636,29.685 106.283636,30.07 106.283636,30.47 C106.283636,30.93 106.358636,31.3283333 106.508636,31.665 C106.658636,32.0016667 106.860303,32.28 107.113636,32.5 C107.36697,32.72 107.665303,32.885 108.008636,32.995 C108.35197,33.105 108.720303,33.16 109.113636,33.16 Z M109.643636,31.91 C109.410303,31.91 109.193636,31.8816667 108.993636,31.825 C108.793636,31.7683333 108.620303,31.6783333 108.473636,31.555 C108.32697,31.4316667 108.210303,31.2733333 108.123636,31.08 C108.03697,30.8866667 107.993636,30.6566667 107.993636,30.39 C107.993636,30.11 108.075303,29.8566667 108.238636,29.63 C108.40197,29.4033333 108.663636,29.2066667 109.023636,29.04 C109.383636,28.8733333 109.850303,28.7383333 110.423636,28.635 C110.99697,28.5316667 111.693636,28.4666667 112.513636,28.44 L112.513636,28.44 L112.513636,30.55 C112.313636,30.7633333 112.108636,30.9533333 111.898636,31.12 C111.688636,31.2866667 111.468636,31.4283333 111.238636,31.545 C111.008636,31.6616667 110.763636,31.7516667 110.503636,31.815 C110.243636,31.8783333 109.95697,31.91 109.643636,31.91 Z M118.289091,33 L118.289091,25.54 C118.675758,25.1066667 119.097424,24.7633333 119.554091,24.51 C120.010758,24.2566667 120.502424,24.13 121.029091,24.13 C121.749091,24.13 122.284091,24.3416667 122.634091,24.765 C122.984091,25.1883333 123.159091,25.7833333 123.159091,26.55 L123.159091,26.55 L123.159091,33 L124.939091,33 L124.939091,26.55 C124.939091,25.9766667 124.865758,25.4533333 124.719091,24.98 C124.572424,24.5066667 124.357424,24.1016667 124.074091,23.765 C123.790758,23.4283333 123.437424,23.1683333 123.014091,22.985 C122.590758,22.8016667 122.102424,22.71 121.549091,22.71 C120.835758,22.71 120.207424,22.86 119.664091,23.16 C119.120758,23.46 118.629091,23.8533333 118.189091,24.34 L118.189091,24.34 L118.049091,23.24 C117.982424,22.9933333 117.822424,22.87 117.569091,22.87 L117.569091,22.87 L116.509091,22.87 L116.509091,33 L118.289091,33 Z M128.274545,20.95 C128.447879,20.95 128.611212,20.9166667 128.764545,20.85 C128.917879,20.7833333 129.052879,20.6916667 129.169545,20.575 C129.286212,20.4583333 129.379545,20.325 129.449545,20.175 C129.519545,20.025 129.554545,19.8633333 129.554545,19.69 C129.554545,19.5166667 129.519545,19.3516667 129.449545,19.195 C129.379545,19.0383333 129.286212,18.9016667 129.169545,18.785 C129.052879,18.6683333 128.917879,18.5766667 128.764545,18.51 C128.611212,18.4433333 128.447879,18.41 128.274545,18.41 C128.101212,18.41 127.939545,18.4433333 127.789545,18.51 C127.639545,18.5766667 127.506212,18.6683333 127.389545,18.785 C127.272879,18.9016667 127.181212,19.0383333 127.114545,19.195 C127.047879,19.3516667 127.014545,19.5166667 127.014545,19.69 C127.014545,19.8633333 127.047879,20.025 127.114545,20.175 C127.181212,20.325 127.272879,20.4583333 127.389545,20.575 C127.506212,20.6916667 127.639545,20.7833333 127.789545,20.85 C127.939545,20.9166667 128.101212,20.95 128.274545,20.95 Z M129.154545,33 L129.154545,22.87 L127.374545,22.87 L127.374545,33 L129.154545,33 Z M135.59,33.14 C136.323333,33.14 137.02,33.015 137.68,32.765 C138.34,32.515 138.89,32.12 139.33,31.58 L139.33,31.58 L138.83,30.93 C138.756667,30.8166667 138.643333,30.76 138.49,30.76 C138.37,30.76 138.25,30.8116667 138.13,30.915 C138.01,31.0183333 137.856667,31.1333333 137.67,31.26 C137.483333,31.3866667 137.25,31.5016667 136.97,31.605 C136.69,31.7083333 136.333333,31.76 135.9,31.76 C135.446667,31.76 135.038333,31.675 134.675,31.505 C134.311667,31.335 134.003333,31.0883333 133.75,30.765 C133.496667,30.4416667 133.3,30.0416667 133.16,29.565 C133.02,29.0883333 132.95,28.5433333 132.95,27.93 C132.95,27.3433333 133.015,26.8133333 133.145,26.34 C133.275,25.8666667 133.468333,25.4633333 133.725,25.13 C133.981667,24.7966667 134.3,24.5416667 134.68,24.365 C135.06,24.1883333 135.496667,24.1 135.99,24.1 C136.363333,24.1 136.678333,24.1416667 136.935,24.225 C137.191667,24.3083333 137.41,24.4 137.59,24.5 C137.77,24.6 137.918333,24.6916667 138.035,24.775 C138.151667,24.8583333 138.26,24.9 138.36,24.9 C138.46,24.9 138.536667,24.88 138.59,24.84 C138.643333,24.8 138.696667,24.7433333 138.75,24.67 L138.75,24.67 L139.22,24.03 C138.8,23.61 138.316667,23.285 137.77,23.055 C137.223333,22.825 136.596667,22.71 135.89,22.71 C135.123333,22.71 134.443333,22.84 133.85,23.1 C133.256667,23.36 132.758333,23.7216667 132.355,24.185 C131.951667,24.6483333 131.645,25.2 131.435,25.84 C131.225,26.48 131.12,27.1766667 131.12,27.93 C131.12,28.7566667 131.235,29.4933333 131.465,30.14 C131.695,30.7866667 132.01,31.3316667 132.41,31.775 C132.81,32.2183333 133.281667,32.5566667 133.825,32.79 C134.368333,33.0233333 134.956667,33.14 135.59,33.14 Z M141.825455,20.95 C141.998788,20.95 142.162121,20.9166667 142.315455,20.85 C142.468788,20.7833333 142.603788,20.6916667 142.720455,20.575 C142.837121,20.4583333 142.930455,20.325 143.000455,20.175 C143.070455,20.025 143.105455,19.8633333 143.105455,19.69 C143.105455,19.5166667 143.070455,19.3516667 143.000455,19.195 C142.930455,19.0383333 142.837121,18.9016667 142.720455,18.785 C142.603788,18.6683333 142.468788,18.5766667 142.315455,18.51 C142.162121,18.4433333 141.998788,18.41 141.825455,18.41 C141.652121,18.41 141.490455,18.4433333 141.340455,18.51 C141.190455,18.5766667 141.057121,18.6683333 140.940455,18.785 C140.823788,18.9016667 140.732121,19.0383333 140.665455,19.195 C140.598788,19.3516667 140.565455,19.5166667 140.565455,19.69 C140.565455,19.8633333 140.598788,20.025 140.665455,20.175 C140.732121,20.325 140.823788,20.4583333 140.940455,20.575 C141.057121,20.6916667 141.190455,20.7833333 141.340455,20.85 C141.490455,20.9166667 141.652121,20.95 141.825455,20.95 Z M142.705455,33 L142.705455,22.87 L140.925455,22.87 L140.925455,33 L142.705455,33 Z" id="RalucaComanici"></path>
        </g>
    </g>
</svg>